<mxfile host="Electron" modified="2023-09-29T17:17:53.060Z" agent="Mozilla/5.0 (Windows NT 10.0; Win64; x64) AppleWebKit/537.36 (KHTML, like Gecko) draw.io/21.6.8 Chrome/114.0.5735.289 Electron/25.5.0 Safari/537.36" etag="S_79t2hojgyKWoFHHn4R" version="21.6.8" type="device">
  <diagram name="PÃ¡gina-1" id="Lc4ELZwaz58-Ke9D4b2W">
    <mxGraphModel dx="989" dy="1751" grid="1" gridSize="10" guides="1" tooltips="1" connect="1" arrows="1" fold="1" page="1" pageScale="1" pageWidth="827" pageHeight="1169" math="0" shadow="0">
      <root>
        <mxCell id="0" />
        <mxCell id="1" parent="0" />
        <mxCell id="sPS6HzS-wyfvZqXQP9nc-2" value="" style="rounded=0;whiteSpace=wrap;html=1;" vertex="1" parent="1">
          <mxGeometry x="9" y="20" width="481" height="410" as="geometry" />
        </mxCell>
        <mxCell id="sPS6HzS-wyfvZqXQP9nc-3" value="Imagen" style="rounded=0;whiteSpace=wrap;html=1;" vertex="1" parent="1">
          <mxGeometry x="20" y="50" width="210" height="190" as="geometry" />
        </mxCell>
        <mxCell id="sPS6HzS-wyfvZqXQP9nc-4" value="Titulo" style="rounded=0;whiteSpace=wrap;html=1;" vertex="1" parent="1">
          <mxGeometry x="260" y="50" width="220" height="40" as="geometry" />
        </mxCell>
        <mxCell id="sPS6HzS-wyfvZqXQP9nc-5" value="das" style="rounded=0;whiteSpace=wrap;html=1;" vertex="1" parent="1">
          <mxGeometry x="20" y="260" width="210" height="150" as="geometry" />
        </mxCell>
        <mxCell id="sPS6HzS-wyfvZqXQP9nc-6" value="Tutilo nav" style="rounded=0;whiteSpace=wrap;html=1;" vertex="1" parent="1">
          <mxGeometry x="260" y="320" width="220" height="30" as="geometry" />
        </mxCell>
        <mxCell id="sPS6HzS-wyfvZqXQP9nc-7" value="Descripcion" style="rounded=0;whiteSpace=wrap;html=1;" vertex="1" parent="1">
          <mxGeometry x="260" y="125" width="220" height="150" as="geometry" />
        </mxCell>
        <mxCell id="sPS6HzS-wyfvZqXQP9nc-12" value="" style="rounded=0;whiteSpace=wrap;html=1;" vertex="1" parent="1">
          <mxGeometry x="540" y="160" width="270" height="100" as="geometry" />
        </mxCell>
        <mxCell id="sPS6HzS-wyfvZqXQP9nc-13" value="" style="rounded=0;whiteSpace=wrap;html=1;" vertex="1" parent="1">
          <mxGeometry x="550" y="170" width="120" height="80" as="geometry" />
        </mxCell>
        <mxCell id="sPS6HzS-wyfvZqXQP9nc-14" value="act 1" style="rounded=0;whiteSpace=wrap;html=1;" vertex="1" parent="1">
          <mxGeometry x="550" y="170" width="120" height="20" as="geometry" />
        </mxCell>
        <mxCell id="sPS6HzS-wyfvZqXQP9nc-15" value="act2" style="rounded=0;whiteSpace=wrap;html=1;" vertex="1" parent="1">
          <mxGeometry x="550" y="190" width="120" height="20" as="geometry" />
        </mxCell>
        <mxCell id="sPS6HzS-wyfvZqXQP9nc-16" value="act3" style="rounded=0;whiteSpace=wrap;html=1;" vertex="1" parent="1">
          <mxGeometry x="550" y="210" width="120" height="20" as="geometry" />
        </mxCell>
        <mxCell id="sPS6HzS-wyfvZqXQP9nc-17" value="Titulo de nav" style="rounded=0;whiteSpace=wrap;html=1;" vertex="1" parent="1">
          <mxGeometry x="680" y="200" width="120" height="20" as="geometry" />
        </mxCell>
        <mxCell id="sPS6HzS-wyfvZqXQP9nc-18" value="menos. . ." style="text;html=1;strokeColor=none;fillColor=none;align=center;verticalAlign=middle;whiteSpace=wrap;rounded=0;" vertex="1" parent="1">
          <mxGeometry x="750" y="160" width="60" height="20" as="geometry" />
        </mxCell>
        <mxCell id="sPS6HzS-wyfvZqXQP9nc-21" value="" style="group" vertex="1" connectable="0" parent="1">
          <mxGeometry x="530" y="20" width="290" height="140" as="geometry" />
        </mxCell>
        <mxCell id="sPS6HzS-wyfvZqXQP9nc-8" value="" style="rounded=0;whiteSpace=wrap;html=1;" vertex="1" parent="sPS6HzS-wyfvZqXQP9nc-21">
          <mxGeometry width="290" height="140" as="geometry" />
        </mxCell>
        <mxCell id="sPS6HzS-wyfvZqXQP9nc-9" value="Imagen" style="rounded=0;whiteSpace=wrap;html=1;" vertex="1" parent="sPS6HzS-wyfvZqXQP9nc-21">
          <mxGeometry width="140" height="140" as="geometry" />
        </mxCell>
        <mxCell id="sPS6HzS-wyfvZqXQP9nc-10" value="Titulo" style="rounded=0;whiteSpace=wrap;html=1;" vertex="1" parent="sPS6HzS-wyfvZqXQP9nc-21">
          <mxGeometry x="150" y="10" width="130" height="30" as="geometry" />
        </mxCell>
        <mxCell id="sPS6HzS-wyfvZqXQP9nc-11" value="Descripcion" style="rounded=0;whiteSpace=wrap;html=1;" vertex="1" parent="sPS6HzS-wyfvZqXQP9nc-21">
          <mxGeometry x="150" y="50" width="130" height="80" as="geometry" />
        </mxCell>
        <mxCell id="sPS6HzS-wyfvZqXQP9nc-29" value="Editar" style="rounded=1;whiteSpace=wrap;html=1;" vertex="1" parent="sPS6HzS-wyfvZqXQP9nc-21">
          <mxGeometry x="10" y="110" width="50" height="20" as="geometry" />
        </mxCell>
        <mxCell id="sPS6HzS-wyfvZqXQP9nc-30" value="Borrar" style="rounded=1;whiteSpace=wrap;html=1;" vertex="1" parent="sPS6HzS-wyfvZqXQP9nc-21">
          <mxGeometry x="80" y="110" width="50" height="20" as="geometry" />
        </mxCell>
        <mxCell id="sPS6HzS-wyfvZqXQP9nc-22" value="" style="group" vertex="1" connectable="0" parent="1">
          <mxGeometry x="530" y="280" width="290" height="140" as="geometry" />
        </mxCell>
        <mxCell id="sPS6HzS-wyfvZqXQP9nc-23" value="" style="rounded=0;whiteSpace=wrap;html=1;" vertex="1" parent="sPS6HzS-wyfvZqXQP9nc-22">
          <mxGeometry width="290" height="140" as="geometry" />
        </mxCell>
        <mxCell id="sPS6HzS-wyfvZqXQP9nc-24" value="Imagen" style="rounded=0;whiteSpace=wrap;html=1;" vertex="1" parent="sPS6HzS-wyfvZqXQP9nc-22">
          <mxGeometry width="140" height="140" as="geometry" />
        </mxCell>
        <mxCell id="sPS6HzS-wyfvZqXQP9nc-25" value="Titulo" style="rounded=0;whiteSpace=wrap;html=1;" vertex="1" parent="sPS6HzS-wyfvZqXQP9nc-22">
          <mxGeometry x="150" y="10" width="130" height="30" as="geometry" />
        </mxCell>
        <mxCell id="sPS6HzS-wyfvZqXQP9nc-26" value="Descripcion" style="rounded=0;whiteSpace=wrap;html=1;" vertex="1" parent="sPS6HzS-wyfvZqXQP9nc-22">
          <mxGeometry x="150" y="50" width="130" height="80" as="geometry" />
        </mxCell>
        <mxCell id="sPS6HzS-wyfvZqXQP9nc-31" value="Editar" style="rounded=1;whiteSpace=wrap;html=1;" vertex="1" parent="sPS6HzS-wyfvZqXQP9nc-22">
          <mxGeometry x="10" y="110" width="50" height="20" as="geometry" />
        </mxCell>
        <mxCell id="sPS6HzS-wyfvZqXQP9nc-32" value="Borrar" style="rounded=1;whiteSpace=wrap;html=1;" vertex="1" parent="sPS6HzS-wyfvZqXQP9nc-22">
          <mxGeometry x="80" y="110" width="50" height="20" as="geometry" />
        </mxCell>
        <mxCell id="sPS6HzS-wyfvZqXQP9nc-27" value="" style="rounded=0;whiteSpace=wrap;html=1;" vertex="1" parent="1">
          <mxGeometry x="540" y="420" width="270" height="20" as="geometry" />
        </mxCell>
        <mxCell id="sPS6HzS-wyfvZqXQP9nc-28" value="mas. . ." style="text;html=1;strokeColor=none;fillColor=none;align=center;verticalAlign=middle;whiteSpace=wrap;rounded=0;" vertex="1" parent="1">
          <mxGeometry x="750" y="420" width="60" height="20" as="geometry" />
        </mxCell>
        <mxCell id="sPS6HzS-wyfvZqXQP9nc-34" value="Guardar / Actualizar" style="rounded=0;whiteSpace=wrap;html=1;" vertex="1" parent="1">
          <mxGeometry x="260" y="380" width="220" height="30" as="geometry" />
        </mxCell>
        <mxCell id="sPS6HzS-wyfvZqXQP9nc-38" value="act5" style="rounded=0;whiteSpace=wrap;html=1;" vertex="1" parent="1">
          <mxGeometry x="20" y="380" width="210" height="30" as="geometry" />
        </mxCell>
        <mxCell id="sPS6HzS-wyfvZqXQP9nc-40" value="act4" style="rounded=0;whiteSpace=wrap;html=1;" vertex="1" parent="1">
          <mxGeometry x="20" y="350" width="210" height="30" as="geometry" />
        </mxCell>
        <mxCell id="sPS6HzS-wyfvZqXQP9nc-41" value="act3" style="rounded=0;whiteSpace=wrap;html=1;" vertex="1" parent="1">
          <mxGeometry x="20" y="320" width="210" height="30" as="geometry" />
        </mxCell>
        <mxCell id="sPS6HzS-wyfvZqXQP9nc-42" value="act2" style="rounded=0;whiteSpace=wrap;html=1;" vertex="1" parent="1">
          <mxGeometry x="20" y="290" width="210" height="30" as="geometry" />
        </mxCell>
        <mxCell id="sPS6HzS-wyfvZqXQP9nc-43" value="act1" style="rounded=0;whiteSpace=wrap;html=1;" vertex="1" parent="1">
          <mxGeometry x="20" y="260" width="210" height="30" as="geometry" />
        </mxCell>
        <mxCell id="sPS6HzS-wyfvZqXQP9nc-44" value="Text" style="text;html=1;strokeColor=none;fillColor=none;align=center;verticalAlign=middle;whiteSpace=wrap;rounded=0;" vertex="1" parent="1">
          <mxGeometry x="9" y="20" width="60" height="30" as="geometry" />
        </mxCell>
        <mxCell id="sPS6HzS-wyfvZqXQP9nc-45" value="Text" style="text;html=1;strokeColor=none;fillColor=none;align=center;verticalAlign=middle;whiteSpace=wrap;rounded=0;" vertex="1" parent="1">
          <mxGeometry x="260" y="20" width="60" height="30" as="geometry" />
        </mxCell>
        <mxCell id="sPS6HzS-wyfvZqXQP9nc-46" value="Text" style="text;html=1;strokeColor=none;fillColor=none;align=center;verticalAlign=middle;whiteSpace=wrap;rounded=0;" vertex="1" parent="1">
          <mxGeometry x="260" y="95" width="60" height="30" as="geometry" />
        </mxCell>
        <mxCell id="sPS6HzS-wyfvZqXQP9nc-47" value="Text" style="text;html=1;strokeColor=none;fillColor=none;align=center;verticalAlign=middle;whiteSpace=wrap;rounded=0;" vertex="1" parent="1">
          <mxGeometry x="95" y="240" width="60" height="30" as="geometry" />
        </mxCell>
        <mxCell id="sPS6HzS-wyfvZqXQP9nc-48" value="Text" style="text;html=1;strokeColor=none;fillColor=none;align=center;verticalAlign=middle;whiteSpace=wrap;rounded=0;" vertex="1" parent="1">
          <mxGeometry x="250" y="290" width="60" height="30" as="geometry" />
        </mxCell>
        <mxCell id="sPS6HzS-wyfvZqXQP9nc-50" value="Administrador . . ." style="rounded=0;whiteSpace=wrap;html=1;" vertex="1" parent="1">
          <mxGeometry y="-50" width="830" height="50" as="geometry" />
        </mxCell>
        <mxCell id="sPS6HzS-wyfvZqXQP9nc-51" value="" style="ellipse;whiteSpace=wrap;html=1;aspect=fixed;" vertex="1" parent="1">
          <mxGeometry x="9" y="-44.5" width="39" height="39" as="geometry" />
        </mxCell>
      </root>
    </mxGraphModel>
  </diagram>
</mxfile>
